<?xml version="1.0" encoding="UTF-8" standalone="no"?>
<!-- Created with Inkscape (http://www.inkscape.org/) -->

<svg
   width="100%"
   height="100%"
   viewBox="0 0 31.946038 20.274271"
   version="1.1"
   id="svg1"
   xml:space="preserve"
   xmlns="http://www.w3.org/2000/svg"><defs
     id="defs1" /><g
     id="layer1"
     transform="translate(-4.0403125,-137.73132)"><g
       id="g15"><path
         style="fill:#090909;fill-opacity:1"
         d="m 117.90938,154.07196 c -1.86829,-0.20916 -3.18612,-1.12641 -3.78418,-2.63391 -0.22546,-0.56832 -0.27998,-0.93542 -0.27829,-1.87397 0.001,-0.78223 0.0104,-0.88095 0.11749,-1.29711 0.21914,-0.8511 0.5233,-1.43367 1.03763,-1.98738 0.51747,-0.55708 1.20058,-0.9585 1.9967,-1.17333 0.36307,-0.098 0.47965,-0.10875 1.18582,-0.10963 0.8571,-0.001 1.09667,0.0375 1.67703,0.26987 0.82401,0.32995 1.56385,1.06305 1.88054,1.86341 0.26222,0.66268 0.3371,1.15291 0.3371,2.20688 v 0.84112 h -2.89984 -2.89983 v 0.14239 c 0,0.71433 0.37649,1.30833 1.03648,1.63527 0.53933,0.26717 1.02433,0.35368 1.82102,0.3248 0.68753,-0.0249 1.04292,-0.0937 1.68499,-0.32617 0.20496,-0.0742 0.37921,-0.12799 0.38721,-0.11952 0.0416,0.044 0.43857,1.6696 0.4131,1.69151 -0.13937,0.11988 -1.19826,0.4219 -1.76563,0.5036 -0.42989,0.0619 -1.55368,0.0862 -1.94734,0.0422 z m 1.15359,-5.58729 0.51858,-9e-5 v -0.18161 c 0,-0.41618 -0.19975,-0.92625 -0.47296,-1.20774 -0.28286,-0.29142 -0.49164,-0.36748 -1.00871,-0.36748 -0.41225,0 -0.46446,0.01 -0.71966,0.13345 -0.55766,0.27047 -0.85234,0.71291 -1.03647,1.55615 l -0.0269,0.12328 1.11377,-0.0279 c 0.61258,-0.0154 1.34715,-0.028 1.63237,-0.028 z m 5.54792,5.58752 c -0.38501,-0.0612 -0.87753,-0.24409 -1.20456,-0.44729 -0.55498,-0.34485 -0.92825,-0.85568 -1.09582,-1.49965 -0.0921,-0.35397 -0.0919,-1.07007 3.1e-4,-1.41817 0.29366,-1.1081 1.29562,-1.82998 2.88063,-2.07538 0.23243,-0.036 0.84646,-0.0772 1.36452,-0.0917 l 0.94192,-0.0262 v -0.38013 c 0,-0.49957 -0.0593,-0.68441 -0.29517,-0.92031 -0.54147,-0.54152 -1.76499,-0.48958 -3.06977,0.13032 -0.20303,0.0965 -0.38402,0.15926 -0.40219,0.13954 -0.10027,-0.10876 -0.80976,-1.5507 -0.77837,-1.58193 0.0768,-0.0765 0.81394,-0.41911 1.17999,-0.54852 1.23071,-0.43509 2.80263,-0.50334 3.85234,-0.16726 1.08525,0.34746 1.74043,1.11457 1.92541,2.25435 0.0256,0.15763 0.0426,1.49377 0.0428,3.36325 l 3.2e-4,3.10173 -0.94045,-0.0114 -0.94046,-0.0114 -0.10528,-0.43392 c -0.0579,-0.23865 -0.12551,-0.43391 -0.15025,-0.43391 -0.0247,0 -0.13019,0.0879 -0.23434,0.19539 -0.36228,0.37383 -0.91066,0.66957 -1.47698,0.79653 -0.37621,0.0843 -1.16114,0.11901 -1.49456,0.066 z m 2.04812,-1.87505 c 0.30472,-0.14908 0.6238,-0.4035 0.76921,-0.61333 0.11377,-0.16418 0.11417,-0.16742 0.10252,-0.83464 l -0.0117,-0.66982 -0.5715,0.01 c -1.23297,0.0214 -1.82606,0.24119 -2.0922,0.77527 -0.20369,0.40875 -0.11701,0.92698 0.20052,1.19877 0.24719,0.21159 0.47896,0.27455 0.96176,0.26127 0.3405,-0.009 0.44075,-0.0293 0.64139,-0.12745 z m 8.09904,1.89242 c -1.75566,-0.17795 -2.9868,-0.9305 -3.69829,-2.26065 -0.38438,-0.71859 -0.53743,-1.47274 -0.50243,-2.47571 0.0171,-0.48915 0.0468,-0.72986 0.12869,-1.04364 0.38531,-1.47555 1.37056,-2.55719 2.77834,-3.05017 0.94306,-0.33025 2.27993,-0.37769 3.31172,-0.11752 0.24648,0.0621 0.96666,0.33778 1.03975,0.39794 0.0154,0.0127 -0.48443,1.63437 -0.51235,1.66229 -0.0137,0.0137 -0.17341,-0.0429 -0.35482,-0.12577 -0.53455,-0.24436 -0.809,-0.30366 -1.40744,-0.30411 -0.42767,-3.2e-4 -0.58601,0.0174 -0.8255,0.0926 -0.83023,0.26061 -1.36425,0.82949 -1.59427,1.69833 -0.12231,0.462 -0.12125,1.37439 0.002,1.84088 0.13324,0.5037 0.32513,0.8556 0.64371,1.18045 0.46576,0.47493 1.08565,0.70861 1.87974,0.70861 0.4712,0 0.83801,-0.0755 1.33662,-0.27494 0.2117,-0.0847 0.391,-0.14765 0.39843,-0.13988 0.0195,0.0204 0.44512,1.58193 0.44512,1.63305 0,0.092 -0.84362,0.38222 -1.4404,0.49542 -0.35319,0.067 -1.3065,0.11546 -1.62877,0.0828 z m -29.69683,-5.96713 v -5.78086 l 2.61408,0.0167 c 2.85991,0.0183 2.81985,0.015 3.51296,0.28275 1.34086,0.51791 2.09359,1.57616 2.19711,3.08885 0.046,0.67286 -0.12326,1.3988 -0.45983,1.97159 -0.31344,0.53342 -0.93265,1.0934 -1.52733,1.38123 -0.13844,0.067 -0.19737,0.11911 -0.18433,0.16297 0.0106,0.0355 0.63875,1.09317 1.396,2.35047 l 1.37682,2.286 -1.42263,0.0112 c -0.78245,0.006 -1.4367,-0.003 -1.45388,-0.0212 -0.0172,-0.0178 -0.50173,-0.9372 -1.07677,-2.04316 -0.57503,-1.10596 -1.07221,-2.05369 -1.10484,-2.10608 -0.0574,-0.0921 -0.0808,-0.0953 -0.71451,-0.0953 h -0.65519 v 2.13783 2.13784 h -1.24883 -1.24883 z m 4.33916,-0.50479 c 0.96633,-0.25935 1.3828,-0.74436 1.38331,-1.61093 2.8e-4,-0.47903 -0.089,-0.79738 -0.30371,-1.08315 -0.20035,-0.26665 -0.44292,-0.43343 -0.80443,-0.55309 -0.23835,-0.0789 -0.39836,-0.0935 -1.19592,-0.10928 l -0.92075,-0.0182 v 1.74606 1.74605 l 0.79375,-0.0246 c 0.52438,-0.0163 0.87995,-0.0478 1.04775,-0.0928 z m 29.01951,-0.27667 v -5.15915 l 1.21708,0.0112 1.21708,0.0112 0.0212,1.14916 0.0212,2.55234 0.14817,-0.11047 c 0.40044,-0.29854 1.13653,-0.62969 1.651,-0.74274 0.40932,-0.0899 1.5072,-0.0784 1.86267,0.0196 0.49857,0.13746 0.88064,0.35523 1.23245,0.70247 0.36917,0.36439 0.56547,0.72189 0.72146,1.31397 0.0931,0.35351 0.0948,0.40637 0.10967,3.58672 l 0.0151,3.22792 h -1.22986 -1.22985 v -2.82229 c 0,-2.93575 -0.0136,-3.20316 -0.18078,-3.56212 -0.25902,-0.55608 -0.94542,-0.80271 -1.72358,-0.61931 -0.35442,0.0835 -0.81014,0.30392 -1.13787,0.55029 l -0.25977,0.19527 v 3.12908 3.12908 h -1.22767 -1.22766 z"
         id="path8"
         transform="matrix(0.75141937,0,0,0.75141937,-74.199509,30.893138)" /><path
         d="m 119.77064,167.41404 c -0.66304,-0.0859 -1.21016,-0.35008 -1.65641,-0.79968 -0.35468,-0.35735 -0.53704,-0.68007 -0.68831,-1.21808 -0.0907,-0.32248 -0.0926,-0.38739 -0.1061,-3.61979 l -0.0138,-3.29142 h 1.2296 1.22959 v 3.00121 c 0,2.9154 0.002,3.00932 0.0876,3.28491 0.16439,0.53221 0.60591,0.82589 1.24169,0.82589 0.67583,0 1.12378,-0.1767 1.59422,-0.62885 l 0.2938,-0.28238 v -3.10039 -3.10039 h 1.2065 1.2065 v 4.38151 4.3815 h -0.90378 -0.90378 l -0.11698,-0.45509 c -0.0643,-0.25029 -0.13363,-0.47291 -0.15397,-0.49471 -0.0224,-0.024 -0.0999,0.0138 -0.19632,0.0957 -0.75277,0.63955 -1.37716,0.91987 -2.276,1.02181 -0.43179,0.049 -0.68572,0.0485 -1.0741,-0.002 z m 9.41256,-0.2071 c -0.37636,-0.0536 -0.75632,-0.15964 -1.02825,-0.28698 -0.30828,-0.14435 -0.7137,-0.54945 -0.86532,-0.86463 -0.25555,-0.5312 -0.25679,-0.54608 -0.27428,-3.284 l -0.016,-2.50825 h -0.67489 -0.67489 v -0.889 -0.88901 h 0.67674 0.67674 l 0.0112,-1.34408 0.0112,-1.34408 h 1.2065 1.2065 l 0.0112,1.34408 0.0112,1.34408 h 1.16357 1.16357 v 0.88901 0.0647 a 0.82429029,0.82429029 135 0 1 -0.82429,0.82429 h -0.33987 -1.16417 l 2.4e-4,2.16958 c 1.4e-4,1.3618 0.0165,2.2282 0.044,2.32702 0.13302,0.47899 0.59991,0.67513 1.38684,0.58261 0.22575,-0.0265 0.53825,-0.0907 0.69443,-0.14268 l 0.28397,-0.0944 0.0452,0.21419 c 0.0249,0.1178 0.10552,0.49656 0.1792,0.84169 0.11443,0.53597 0.12507,0.63328 0.073,0.66711 -0.0937,0.0608 -0.71524,0.2459 -1.06254,0.3164 -0.3698,0.0751 -1.56003,0.1137 -1.92065,0.0624 z"
         style="fill:#090909;fill-opacity:1"
         id="path9"
         transform="matrix(0.75141937,0,0,0.75141937,-74.199509,31.951472)" /><path
         id="path10"
         style="display:inline;fill:#000000;fill-opacity:1;stroke-width:0.535776;paint-order:markers fill stroke"
         d="m 90.638672,105.56055 c -6.590593,-7e-5 -11.933377,5.343 -11.933594,11.93359 0.01581,6.26405 4.873487,11.44894 11.123047,11.875 0.02183,-0.89279 -0.04554,-1.95636 -0.199219,-3.18555 -0.14746,-0.77218 -0.410732,-1.43842 -0.759765,-2.02734 -0.06065,-0.10234 -0.183845,-0.24963 -0.271485,-0.33008 l -1.74414,-1.59961 c -0.180125,-0.16533 -0.358098,-0.49625 -0.427735,-0.73047 -0.20415,-0.68664 -0.649873,-1.55351 -1.453125,-2.54492 -0.88701,-1.09479 -0.470703,-1.24023 -0.470703,-1.24023 1.362156,0.27383 2.625203,2.4551 2.818359,2.36328 l 0.191407,0.0527 c 0.352165,-0.43602 0.644558,-0.86475 0.80664,-1.53125 0.01915,-0.30639 -0.03797,-0.56349 -0.0918,-1.35351 -0.03914,-0.5744 -0.132411,-1.43343 -0.201171,-2.35742 -0.03611,-0.48518 -0.0882,-0.94191 -0.0918,-1.36133 -0.002,-0.2345 0.216504,-0.54361 0.421875,-0.56446 0.362531,-0.0368 0.563051,1.84158 0.613281,2.14454 0.245987,1.48378 0.140337,1.68073 0.449219,3 0.02915,0.12449 0.04765,0.18401 0.234375,0.30468 0.202678,0.0378 0.404743,0.17415 0.607422,-0.0117 0.121879,-0.26031 0.06257,-0.21899 0.09375,-0.32812 0.0096,-1.51467 -0.07963,-3.00792 -0.128907,-4.69922 0.04223,-0.5066 0.0065,-0.92369 0.234375,-0.98242 0.227821,-0.0587 0.442392,0.3055 0.513672,0.87695 l 0.34961,4.44727 c 0,0 0.02147,0.65459 0.232422,0.86718 0.08053,0.0812 0.237758,0.1149 0.330078,0.0918 0.09233,-0.0232 0.166015,-0.1582 0.166015,-0.1582 l 0.382813,-1.74024 0.33789,-1.79492 c 0,0 0.277626,-1.15148 0.259766,-1.14258 0.129482,-0.50667 0.392246,-0.41707 0.525391,-0.23437 0.07803,0.10708 0.07227,0.28906 0.07227,0.28906 l -0.02539,0.33008 -0.197266,1.58008 -0.259766,1.77734 c 0,0 -0.239368,1.4188 -0.230468,1.55274 0.0089,0.13393 0.143864,0.20429 0.263672,0.2539 0.304675,0.10666 0.386718,-0.0312 0.386718,-0.0312 0,0 0.49069,-0.77109 0.705078,-1.25 0,0 0.421594,-0.71571 0.439454,-0.72461 0.375018,-0.41073 0.549945,-0.96287 0.603515,-1.33789 0.26787,-0.46431 0.529297,0.11914 0.529297,0.11914 0.122664,0.54489 -0.625,1.86328 -0.625,1.86328 0,0 -0.245887,0.3651 -0.302734,0.48633 -0.05685,0.12123 -0.07227,0.21875 -0.07227,0.21875 l -0.03516,0.24219 c -0.06563,0 -0.617441,1.52948 -0.625,1.64258 -0.0079,0.11895 -0.06204,0.44151 -0.03516,0.41015 -0.364879,0.98998 -0.370738,1.74372 -0.429688,2.51954 0,0 0.0028,0.01 0.01758,0.21875 0.01479,0.20924 0.197266,1.01171 0.197266,1.01171 0.05884,1.35866 -0.0042,3.24106 0.177734,4.07227 l 0.0039,0.0586 c 5.021411,-1.52876 8.453486,-6.15923 8.457036,-11.4082 -2.2e-4,-6.59059 -5.343005,-11.93366 -11.933598,-11.93359 z"
         transform="matrix(0.39685379,0,0,0.39685379,-27.194097,106.66495)" /></g></g></svg>
