<svg width="180" height="180" viewBox="0 0 180 180" fill="none" xmlns="http://www.w3.org/2000/svg">
<path d="M90 174.167C111.008 174.204 131.261 166.331 146.728 152.115C145.887 144.203 140.837 136.46 131.831 130.4C108.938 115.082 71.2309 115.082 48.1692 130.4C39.1634 136.46 34.1134 144.203 33.2717 152.115C48.2534 165.834 68.1167 174.167 90 174.167ZM90 174.167C136.485 174.167 174.167 136.485 174.167 90C174.167 43.5147 136.485 5.83333 90 5.83333C43.5148 5.83333 5.83337 43.5147 5.83337 90C5.83337 136.485 43.5148 174.167 90 174.167ZM91.01 96.565C90.3393 96.4808 89.6607 96.4808 88.99 96.565C81.8523 96.3248 75.0874 93.3194 70.1245 88.1837C65.1616 83.048 62.3893 76.1843 62.3934 69.0425C62.3934 53.8083 74.6817 41.4358 90 41.4358C97.2337 41.4233 104.183 44.2538 109.348 49.3172C114.514 54.3806 117.484 61.2713 117.616 68.5037C117.749 75.7361 115.034 82.731 110.057 87.9802C105.08 93.2294 98.2393 96.3126 91.01 96.565Z" stroke="#ffff" stroke-opacity="0.9" stroke-width="10" stroke-linecap="round" stroke-linejoin="round"/>
</svg>
