<?xml version="1.0" encoding="UTF-8" standalone="no"?>
<!-- Created with Inkscape (http://www.inkscape.org/) -->

<svg
   width="17.646984mm"
   height="17.580336mm"
   viewBox="0 0 17.646984 17.580334"
   version="1.1"
   id="svg1"
   xml:space="preserve"
   xmlns="http://www.w3.org/2000/svg"
   xmlns:svg="http://www.w3.org/2000/svg"><defs
     id="defs1" /><g
     id="layer2"
     transform="translate(-223.31721,-48.226474)"><g
       id="g43"
       transform="translate(20.102491,-6.1718951)"><path
         id="path56"
         style="display:inline;fill:#ffffff;stroke-width:0.297588;stroke-opacity:0.413462;paint-order:markers fill stroke"
         d="m 212.03795,54.39837 5.2e-4,5.17e-4 a 8.8243678,8.8027009 0 0 0 -1.2423,0.08888 c -0.007,0.001 -0.0142,0.0017 -0.0212,0.0026 a 8.8243678,8.8027009 0 0 0 -1.20974,0.263033 c -0.007,0.0021 -0.0144,0.0041 -0.0227,0.0062 a 8.8243678,8.8027009 0 0 0 -1.13792,0.422713 c -0.02,0.0091 -0.0399,0.01816 -0.0599,0.02739 a 8.8243678,8.8027009 0 0 0 -1.02061,0.555521 c -0.036,0.02274 -0.0713,0.04598 -0.10697,0.06925 a 8.8243678,8.8027009 0 0 0 -0.88625,0.661458 c -0.0455,0.03867 -0.0907,0.07773 -0.13539,0.117306 a 8.8243678,8.8027009 0 0 0 -0.75448,0.752409 c -0.0455,0.05121 -0.0901,0.103265 -0.13436,0.155546 a 8.8243678,8.8027009 0 0 0 -0.63304,0.842842 c -0.0371,0.05586 -0.0729,0.112742 -0.10852,0.169499 a 8.8243678,8.8027009 0 0 0 -0.51624,0.943611 c -0.0231,0.04924 -0.045,0.09923 -0.0672,0.148829 a 8.8243678,8.8027009 0 0 0 -0.39119,1.045414 c -0.0125,0.03975 -0.0227,0.07996 -0.0341,0.119889 a 8.8243678,8.8027009 0 0 0 -0.24443,1.119828 c -0.005,0.03276 -0.009,0.06628 -0.0124,0.09922 a 8.8243678,8.8027009 0 0 0 -0.0848,1.179256 c -2e-5,0.0054 2e-5,0.0122 0,0.01757 a 8.8243678,8.8027009 0 0 0 0.0889,1.245402 c 1.1e-4,7.34e-4 -1.1e-4,0.0019 0,0.0021 a 8.8243678,8.8027009 0 0 0 8.13542,7.506518 c 5e-5,-0.0025 -4e-5,-0.0053 0,-0.0078 0.21165,0.01511 0.42439,0.02532 0.63976,0.02532 0.87959,0 1.72715,-0.129696 2.52646,-0.368453 2.9e-4,0.0013 2.2e-4,0.0033 5.1e-4,0.0047 v 0.0016 a 8.8243678,8.8027009 0 0 0 6.25595,-8.409823 c -0.005,-3.446442 -1.9887,-6.427185 -4.87412,-7.874454 a 8.8243678,8.8027009 0 0 0 -0.14934,-0.07493 c -0.0514,-0.02462 -0.10397,-0.04716 -0.15607,-0.0708 a 8.8243678,8.8027009 0 0 0 -0.25476,-0.112137 c -0.0258,-0.01074 -0.0522,-0.02056 -0.078,-0.03101 a 8.8243678,8.8027009 0 0 0 -0.33125,-0.127641 c -0.0161,-0.0055 -0.0314,-0.01047 -0.047,-0.01602 A 8.8243678,8.8027009 0 0 0 214.6048,54.7788 c -0.009,-0.003 -0.0197,-0.0054 -0.0294,-0.0083 a 8.8243678,8.8027009 0 0 0 -0.81184,-0.202571 c -0.009,-0.002 -0.0198,-0.0027 -0.0295,-0.0047 a 8.8243678,8.8027009 0 0 0 -0.81855,-0.120923 c -0.0619,-0.0061 -0.12429,-0.0091 -0.18655,-0.01395 a 8.8243678,8.8027009 0 0 0 -0.25373,-0.01912 c -0.14485,-0.0072 -0.29054,-0.01085 -0.43719,-0.01085 z m -0.28887,5.508191 c -0.005,0.08228 -0.009,0.171969 -0.0165,0.265616 0.0182,0.625323 0.0439,1.21411 0.0641,1.786455 0.0202,0.572345 0.035,1.128251 0.0315,1.688269 -0.001,0.0042 -6.8e-4,0.0057 -0.002,0.0093 9.3e-4,-0.004 -3.3e-4,-0.0046 0.001,-0.0093 0.004,-0.560018 -0.0108,-1.11594 -0.031,-1.688269 -0.0202,-0.57233 -0.0463,-1.161131 -0.0646,-1.786455 0.008,-0.09365 0.0125,-0.183348 0.017,-0.265616 z m 2.47944,0.502294 c 0.006,0.0185 0.009,0.03654 0.0124,0.05426 -0.003,-0.01769 -0.006,-0.03578 -0.0124,-0.05426 z m -0.42117,0.106971 c 0.006,-0.0032 -0.0401,0.202186 -0.0889,0.410827 0.0484,-0.207203 0.0953,-0.41404 0.0889,-0.410827 z m -0.23874,1.094506 -0.20257,1.077454 -0.22118,1.004073 0.22066,-1.003556 z m 2.00091,0.441317 c 1.4e-4,-1.21e-4 3.8e-4,1.21e-4 5.2e-4,0 -9.2e-4,7.95e-4 -0.002,0.0023 -0.003,0.0031 7.5e-4,-6.71e-4 0.001,-0.0024 0.002,-0.0031 z m -0.12247,0.328145 c -0.0215,0.07923 -0.0488,0.162314 -0.0832,0.246497 0.0344,-0.08415 0.0618,-0.167314 0.0832,-0.246497 z m -4.49482,0.229961 c 0.0157,0.145965 0.0334,0.288873 0.0605,0.454235 -0.0271,-0.165663 -0.0448,-0.308072 -0.0605,-0.454235 z m 4.40748,0.02687 c -0.0347,0.08362 -0.0764,0.167846 -0.12557,0.249598 0.0491,-0.08174 0.0909,-0.166017 0.12557,-0.249598 z m 0.42117,0.21084 c -0.033,0.0906 -0.0688,0.176193 -0.10646,0.261483 0.0372,-0.08439 0.0738,-0.171957 0.10646,-0.261483 z m -4.76664,0.22686 c 0.0276,0.167077 0.0648,0.356929 0.12144,0.59893 -0.0566,-0.241579 -0.0939,-0.432075 -0.12144,-0.59893 z m -3.5512,0.337964 c -0.0186,0.02275 -0.0367,0.06151 -0.0341,0.125573 -0.003,-0.06404 0.0155,-0.102841 0.0341,-0.125573 z m 5.1108,0.242879 c 0.0114,0.06615 0.0269,0.136204 0.0486,0.199471 -0.0218,-0.06337 -0.0371,-0.133192 -0.0486,-0.199471 z m -1.21957,0.254765 c 0.0545,0.01434 0.10885,0.03151 0.1633,0.04186 -0.0543,-0.01041 -0.10891,-0.02755 -0.1633,-0.04186 z m 1.71411,0.0863 c -0.006,0.0098 -0.009,0.01448 -0.0217,0.03049 0.0131,-0.01607 0.0156,-0.02072 0.0217,-0.03049 z m -5.43119,0.01809 c 0.0561,0.08407 0.12487,0.178385 0.21187,0.285771 0.0742,0.09164 0.14418,0.181597 0.21032,0.270267 0.19845,0.266011 0.36139,0.518531 0.493,0.754993 -0.13164,-0.236538 -0.29454,-0.488948 -0.493,-0.754993 -0.0661,-0.08868 -0.13659,-0.178631 -0.21084,-0.270267 -0.0873,-0.107807 -0.15518,-0.201459 -0.21135,-0.285771 z m 2.68562,0.02274 c -0.015,0.06184 -0.0316,0.120589 -0.0496,0.17725 -0.053,0.167055 -0.11837,0.313197 -0.19327,0.447518 0.075,-0.134413 0.14029,-0.280316 0.19327,-0.447518 0.0179,-0.05646 0.0346,-0.115644 0.0496,-0.17725 z m 3.39928,0.394291 c 0.002,0.02475 0.01,0.04678 0.0212,0.06615 -0.0117,-0.01936 -0.0194,-0.04139 -0.0212,-0.06615 z m 0.19688,0.188102 c 0.0529,0.01833 0.0963,0.02642 0.1323,0.02842 -0.036,-0.002 -0.0793,-0.01 -0.1323,-0.02842 z m 0.22583,0.01757 c -0.0204,0.0074 -0.0479,0.01208 -0.0822,0.01137 0.034,6.41e-4 0.0619,-0.0041 0.0822,-0.01137 z m -4.0721,0.03824 c -0.0495,0.08747 -0.10326,0.17042 -0.1602,0.25063 0.057,-0.08032 0.11065,-0.163029 0.1602,-0.25063 z m 4.80901,0.243395 c -0.11111,0.283206 -0.21942,0.566933 -0.22221,0.608749 0.003,-0.04181 0.11112,-0.325541 0.22221,-0.608749 z m -5.32991,0.206189 c 0.0124,0.0061 0.0231,0.0082 0.031,0.0052 -0.008,0.0029 -0.0183,0.0012 -0.031,-0.0052 z m -0.87798,0.432015 c 0.0741,0.150281 0.1353,0.293443 0.18448,0.428398 -0.0492,-0.135108 -0.11023,-0.27791 -0.18448,-0.428398 z m 0.56585,1.164787 1.28985,1.18339 c 0.0647,0.0595 0.1557,0.167656 0.2005,0.243396 -0.0449,-0.07573 -0.13586,-0.183978 -0.2005,-0.243396 l -1.28985,-1.182873 c -8e-5,-8e-5 9e-5,-4.37e-4 0,-5.17e-4 z m 5.08962,1.137398 c 0.005,0.07315 0.0383,0.243178 0.0708,0.400493 -0.0328,-0.15833 -0.0652,-0.326222 -0.0708,-0.400493 z m -3.59927,0.289905 c 0.0644,0.108747 0.12521,0.22072 0.18139,0.33693 -0.0562,-0.116194 -0.11694,-0.228192 -0.18139,-0.33693 z m 0.18139,0.337447 c 0.0562,0.116218 0.10833,0.236363 0.15554,0.360702 -0.0472,-0.12432 -0.0994,-0.2445 -0.15554,-0.360702 z m 0.15554,0.361218 c 0.0472,0.124349 0.0896,0.252897 0.12713,0.386023 -0.0376,-0.133109 -0.0799,-0.261692 -0.12713,-0.386023 z m 0.12713,0.38654 c 0.0375,0.13314 0.0704,0.270835 0.0977,0.413412 -0.0272,-0.142566 -0.0601,-0.280288 -0.0977,-0.413412 z m 3.31349,1.07797 c 0.005,0.230075 0.0119,0.448993 0.0238,0.649056 -0.0118,-0.200045 -0.019,-0.419097 -0.0238,-0.649056 z m -3.0825,0.869198 c 0.004,0.08943 0.01,0.182258 0.0119,0.268201 -0.002,-0.08586 -0.008,-0.178864 -0.0119,-0.268201 z" /><path
         d="m 214.60524,71.610238 c -0.13433,-0.616669 -0.0873,-2.004063 -0.13074,-3.006534 0,0 -0.13503,-0.593582 -0.14573,-0.748275 -0.0105,-0.154475 -0.0124,-0.161747 -0.0124,-0.161747 0.0436,-0.573689 0.17456,-1.233145 0.28163,-1.846916 0.0186,-0.10662 0.0565,-0.23145 0.0615,-0.31936 0.006,-0.08363 0.4322,-1.134896 0.4625,-1.214396 l 0.0264,-0.179317 c 0,0 0.0106,-0.07205 0.0527,-0.161748 0.042,-0.08965 0.22376,-0.359668 0.22376,-0.359668 0,0 0.5533,-0.974776 0.4625,-1.377693 0,0 -0.1931,-0.431699 -0.39119,-0.08837 -0.0396,0.277319 -0.16917,0.685876 -0.44649,0.989604 -0.0132,0.0066 -0.32504,0.535884 -0.32504,0.535884 -0.15854,0.354129 -0.52142,0.923975 -0.52142,0.923975 0,0 -0.0605,0.102214 -0.28577,0.02325 -0.0885,-0.0367 -0.18833,-0.08857 -0.19533,-0.187585 -0.007,-0.09905 0.17053,-1.148251 0.17053,-1.148251 l 0.19224,-1.314131 0.14624,-1.168921 0.0186,-0.243913 c 0,0 0.004,-0.1348 -0.0537,-0.21394 -0.0985,-0.135069 -0.29281,-0.201032 -0.38861,0.173633 0.0132,-0.0066 -0.19172,0.844393 -0.19172,0.844393 l -0.24959,1.327567 -0.28319,1.286743 c 0,0 -0.0548,0.09941 -0.12299,0.117306 -0.0682,0.01701 -0.18431,-0.0082 -0.24391,-0.06821 -0.15578,-0.157182 -0.17209,-0.640788 -0.17209,-0.640788 l -0.25838,-3.288688 c -0.0527,-0.422559 -0.21134,-0.691869 -0.37982,-0.648539 -0.16849,0.04342 -0.14192,0.351978 -0.17312,0.72657 0.0365,1.250647 0.10261,2.354688 0.0956,3.474724 -0.0232,0.08062 0.0203,0.04987 -0.0698,0.242362 -0.14987,0.137553 -0.29921,0.03672 -0.44907,0.0088 -0.13809,-0.08918 -0.15193,-0.132763 -0.17363,-0.224792 -0.22841,-0.975548 -0.14985,-1.12128 -0.33176,-2.21847 -0.0371,-0.224017 -0.18564,-1.613159 -0.45372,-1.585949 -0.15194,0.01543 -0.31261,0.244053 -0.31161,0.417545 0.003,0.310138 0.041,0.647892 0.0677,1.006657 0.0509,0.683262 0.12003,1.318304 0.14883,1.743046 0.0399,0.58418 0.082,0.774413 0.0677,1.000973 -0.11986,0.49285 -0.33593,0.80981 -0.59634,1.13223 l -0.1416,-0.03927 c -0.14282,0.06791 -1.07685,-1.544683 -2.08411,-1.74718 0,0 -0.3076,0.107698 0.3483,0.917257 0.59396,0.733089 0.92342,1.37381 1.07435,1.881538 0.0515,0.173219 0.18305,0.417733 0.31626,0.540019 l 1.28985,1.18339 c 0.0647,0.0595 0.1557,0.167656 0.2005,0.243396 0.25811,0.435468 0.45268,0.928149 0.56172,1.499134 0.11094,0.887048 0.15931,1.655605 0.14728,2.305802 0.21165,0.01511 0.42439,0.02532 0.63976,0.02532 0.87959,0 1.72715,-0.129696 2.52646,-0.368453 z"
         style="display:inline;fill:#161616;stroke-width:0.297588;stroke-opacity:0.413462;paint-order:markers fill stroke"
         id="path79" /></g></g></svg>
