<?xml version="1.0" encoding="UTF-8" standalone="no"?>
<!-- Created with Inkscape (http://www.inkscape.org/) -->

<svg
   width="23.867165mm"
   height="23.808592mm"
   viewBox="0 0 23.867165 23.808589"
   version="1.1"
   id="svg1"
   xml:space="preserve"
   xmlns="http://www.w3.org/2000/svg"><defs
     id="defs1" /><g
     id="layer2"
     transform="translate(-106.51819,-74.461747)"><path
       id="path11"
       style="display:inline;opacity:1;fill:#ffffff;fill-opacity:1;stroke:none;stroke-width:0.297656;stroke-dasharray:none;stroke-opacity:0.413462;paint-order:markers fill stroke"
       transform="translate(27.813109,-31.098798)"
       d="m 90.638672,105.56055 c -6.590593,-7e-5 -11.933377,5.343 -11.933594,11.93359 0.01581,6.26405 4.873487,11.44894 11.123047,11.875 0.02183,-0.89279 -0.04554,-1.95636 -0.199219,-3.18555 -0.14746,-0.77218 -0.410732,-1.43842 -0.759765,-2.02734 -0.06065,-0.10234 -0.183845,-0.24963 -0.271485,-0.33008 l -1.74414,-1.59961 c -0.180125,-0.16533 -0.358098,-0.49625 -0.427735,-0.73047 -0.20415,-0.68664 -0.649873,-1.55351 -1.453125,-2.54492 -0.88701,-1.09479 -0.470703,-1.24023 -0.470703,-1.24023 1.362156,0.27383 2.625203,2.4551 2.818359,2.36328 l 0.191407,0.0527 c 0.352165,-0.43602 0.644558,-0.86475 0.80664,-1.53125 0.01915,-0.30639 -0.03797,-0.56349 -0.0918,-1.35351 -0.03914,-0.5744 -0.132411,-1.43343 -0.201171,-2.35742 -0.03611,-0.48518 -0.0882,-0.94191 -0.0918,-1.36133 -0.002,-0.2345 0.216504,-0.54361 0.421875,-0.56446 0.362531,-0.0368 0.563051,1.84158 0.613281,2.14454 0.245987,1.48378 0.140337,1.68073 0.449219,3 0.02915,0.12449 0.04765,0.18401 0.234375,0.30468 0.202678,0.0378 0.404743,0.17415 0.607422,-0.0117 0.121879,-0.26031 0.06257,-0.21899 0.09375,-0.32812 0.0096,-1.51467 -0.07963,-3.00792 -0.128907,-4.69922 0.04223,-0.5066 0.0065,-0.92369 0.234375,-0.98242 0.227821,-0.0587 0.442392,0.3055 0.513672,0.87695 l 0.34961,4.44727 c 0,0 0.02147,0.65459 0.232422,0.86718 0.08053,0.0812 0.237758,0.1149 0.330078,0.0918 0.09233,-0.0232 0.166015,-0.1582 0.166015,-0.1582 l 0.382813,-1.74024 0.33789,-1.79492 c 0,0 0.277626,-1.15148 0.259766,-1.14258 0.129482,-0.50667 0.392246,-0.41707 0.525391,-0.23437 0.07803,0.10708 0.07227,0.28906 0.07227,0.28906 l -0.02539,0.33008 -0.197266,1.58008 -0.259766,1.77734 c 0,0 -0.239368,1.4188 -0.230468,1.55274 0.0089,0.13393 0.143864,0.20429 0.263672,0.2539 0.304675,0.10666 0.386718,-0.0312 0.386718,-0.0312 0,0 0.49069,-0.77109 0.705078,-1.25 0,0 0.421594,-0.71571 0.439454,-0.72461 0.375018,-0.41073 0.549945,-0.96287 0.603515,-1.33789 0.26787,-0.46431 0.529297,0.11914 0.529297,0.11914 0.122664,0.54489 -0.625,1.86328 -0.625,1.86328 0,0 -0.245887,0.3651 -0.302734,0.48633 -0.05685,0.12123 -0.07227,0.21875 -0.07227,0.21875 l -0.03516,0.24219 c -0.04082,0.10749 -0.617441,1.52948 -0.625,1.64258 -0.0079,0.11895 -0.05963,0.28664 -0.08477,0.43082 -0.144711,0.83002 -0.321129,1.72305 -0.380079,2.49887 0,0 0.0028,0.01 0.01758,0.21875 0.01479,0.20924 0.197266,1.01171 0.197266,1.01171 0.05884,1.35866 -0.0042,3.24106 0.177734,4.07227 l 0.0039,0.0586 c 5.021411,-1.52876 8.453484,-6.15923 8.457034,-11.4082 -2.2e-4,-6.59059 -5.343003,-11.93366 -11.933596,-11.93359 z" /></g></svg>
